<svg xmlns="http://www.w3.org/2000/svg" viewBox="0 0 24 24" fill="none" stroke="#544C44" stroke-width="1.8" stroke-linecap="round" stroke-linejoin="round">
  <path d="M12 8.5A3.5 3.5 0 1 0 12 15.5 3.5 3.5 0 0 0 12 8.5Z"/>
  <path d="M19.4 15a1 1 0 0 0 .2 1.1l.1.1a2 2 0 0 1-2.8 2.8l-.1-.1a1 1 0 0 0-1.1-.2 1 1 0 0 0-.6.9V20a2 2 0 0 1-4 0v-.2a1 1 0 0 0-.6-.9 1 1 0 0 0-1.1.2l-.1.1a2 2 0 1 1-2.8-2.8l.1-.1a1 1 0 0 0 .2-1.1 1 1 0 0 0-.9-.6H4a2 2 0 1 1 0-4h.2a1 1 0 0 0 .9-.6 1 1 0 0 0-.2-1.1l-.1-.1a2 2 0 1 1 2.8-2.8l.1.1a1 1 0 0 0 1.1.2h.1a1 1 0 0 0 .6-.9V4a2 2 0 0 1 4 0v.2a1 1 0 0 0 .6.9h.1a1 1 0 0 0 1.1-.2l.1-.1a2 2 0 1 1 2.8 2.8l-.1.1a1 1 0 0 0-.2 1.1v.1a1 1 0 0 0 .9.6H20a2 2 0 1 1 0 4h-.2a1 1 0 0 0-.9.6Z"/>
</svg>
